<svg xmlns="http://www.w3.org/2000/svg" viewBox="0 0 425.28 393.96"><defs><style>.cls-1{fill:#197acf;}</style></defs><g id="Calque_2" data-name="Calque 2"><g id="Calque_2-2" data-name="Calque 2"><path class="cls-1" d="M65,9.24C36.66-8.4,0,12,0,45.35L.08,351.44A42.52,42.52,0,0,0,42.6,394H170.16V280.57A14.18,14.18,0,0,0,156,266.4H99.29a14.17,14.17,0,0,1-14.17-14.17v-56.7a14.18,14.18,0,0,1,14.17-14.17H326.07a14.18,14.18,0,0,1,14.17,14.17v56.7a14.17,14.17,0,0,1-14.17,14.17h-56.7a14.17,14.17,0,0,0-14.17,14.17V394H382.76a42.52,42.52,0,0,0,42.52-42.52L425.2,42.58c0-32.67-35.32-53.13-63.66-36.89-48.89,28-107.61,64.6-134.38,81.43a28.35,28.35,0,0,1-29.49.41Z"/></g></g></svg>